<?xml version="1.0" encoding="UTF-8" standalone="no"?>
<svg width="51px" height="51px" viewBox="0 0 51 51" version="1.1" xmlns="http://www.w3.org/2000/svg" xmlns:xlink="http://www.w3.org/1999/xlink" xmlns:sketch="http://www.bohemiancoding.com/sketch/ns">
    <!-- Generator: Sketch 3.0.2 (7799) - http://www.bohemiancoding.com/sketch -->
    <title>search</title>
    <defs></defs>
    <g id="Page-1" stroke="none" stroke-width="1" fill="none" fill-rule="evenodd" sketch:type="MSPage">
        <path d="M32.198,34.863 C23.137,34.863 15.766,27.492 15.766,18.431 C15.766,9.371 23.137,2 32.198,2 C41.258,2 48.63,9.371 48.63,18.431 C48.63,27.492 41.258,34.863 32.198,34.863 L32.198,34.863 Z M32.198,0 C22.018,0 13.766,8.252 13.766,18.431 C13.766,23.076 15.497,27.308 18.333,30.551 L0,48.883 L1.414,50.297 L19.732,31.98 C23.014,35.002 27.383,36.863 32.198,36.863 C42.376,36.863 50.63,28.611 50.63,18.431 C50.63,8.252 42.376,0 32.198,0 L32.198,0 Z" id="Fill-75" fill="#FFFFFF" sketch:type="MSShapeGroup" transform="translate(25.315000, 25.148500) scale(-1, 1) translate(-25.315000, -25.148500) "></path>
    </g>
</svg>